<svg id="Layer_4" data-name="Layer 4" xmlns="http://www.w3.org/2000/svg" viewBox="0 0 1294.65 835.35"><defs><style>.cls-1{fill:#3c7bd1;}.cls-2{fill:#ffe15b;}</style></defs><path class="cls-1" d="M6591.13,6714.54v527.58H6847.8V7001.2l570.88,5.75c74.5.75,148,19.24,213.12,55.4a426.58,426.58,0,0,1,44.78,28.6c164.85,120.67,209.2,363.74,209.2,363.74V7092.9c0-63.91-15.37-127.5-36.44-187.56-9.1-25.94-20.95-51.28-38-73-16.27-20.65-36.5-38.34-57.7-53.25-60.67-42.71-133.57-64.58-207.77-64.58Z" transform="translate(-6591.13 -6714.54)"/><path class="cls-2" d="M7691.53,7514c-.6-80.54-25.3-159.39-72.48-224.67-5.59-7.73-11.59-15.44-18.05-23.05-72.06-84.9-194.21-88.88-194.21-88.88H7067.55l2.8,372.51H7691.8Zm-254.8-110a58.44,58.44,0,1,1,53.51-53.5A58.45,58.45,0,0,1,7436.73,7403.94Z" transform="translate(-6591.13 -6714.54)"/></svg>